<svg width="193" height="221" viewBox="0 0 193 221" fill="none" xmlns="http://www.w3.org/2000/svg">
<g id="Books">
<g id="Books_2">
<g id="Books_3">
<g id="Group">
<path id="Vector" d="M48.4629 213.698L49.8818 150.789C49.9617 147.695 47.4378 144.323 44.2019 143.663C42.3399 143.278 37.475 143.175 35.3033 143.712C31.9913 144.608 31.4957 147.574 30.8741 150.34L29.4552 213.249C29.4552 213.249 33.0067 210.527 39.0113 210.579C45.233 210.577 48.4629 213.698 48.4629 213.698Z" fill="#E7EFF2"/>
<path id="Vector_2" d="M29.4882 214.317C29.5083 213.467 29.5106 212.544 29.5307 211.693C29.6069 210.138 29.5927 208.527 29.6688 206.971C29.783 204.637 29.8248 202.322 29.9211 199.915C30.095 195.338 30.1786 190.706 30.3525 186.129C30.6257 177.915 30.5549 154.954 30.8012 150.358C31.2721 142.633 46.9731 141.825 49.4134 149.829C49.6828 150.607 49.4171 163.2 49.3917 166.204L49.1066 179.339C48.911 185.382 48.6252 191.37 48.3393 197.359C48.1878 200.163 48.1087 202.949 48.0296 205.735C47.9325 208.449 48.0161 211.272 47.684 213.967C47.5736 214.763 48.44 215.471 49.1997 215.437C50.0131 215.352 50.8833 214.79 50.7766 214.048C50.493 211.658 50.6438 209.162 50.6498 206.701C50.6557 204.24 50.7341 201.762 50.7946 199.211C50.9334 194.181 51.0722 189.151 51.2834 184.104C51.5372 176.432 51.9178 168.653 51.6291 160.962L51.9291 149.13L52.8203 109.868C52.9166 107.462 51.6196 105.323 49.7054 104.106C49.3262 103.816 48.9651 103.597 48.6762 103.361C47.5747 102.635 46.3464 102.016 45.0814 101.561C42.6239 100.631 39.894 100.154 37.2529 100.346C34.4492 100.501 31.8603 101.526 30.7327 104.11C30.6416 104.363 30.4782 104.634 30.405 104.96C29.6237 106.459 29.258 108.087 29.0371 109.679C28.7617 111.361 28.5587 113.025 28.5184 114.725C28.3109 118.235 28.2482 121.709 28.131 125.273C27.9146 132.474 27.7705 139.657 27.6086 146.767C27.2481 161.151 26.9779 175.589 26.6173 189.973C26.3807 198.024 26.0717 206.093 25.9978 214.181C25.9202 216.352 29.483 216.47 29.4882 214.317Z" fill="#8170F2"/>
<g id="Group_2">
<path id="Vector_3" d="M47.8499 138.226C47.6335 137.972 47.6701 137.81 47.3992 137.646C47.1104 137.41 46.7671 137.264 46.4059 137.046C45.7917 136.737 45.1051 136.446 44.4365 136.227C43.0088 135.735 41.4356 135.586 39.8983 135.582C38.4334 135.56 36.8774 135.791 35.4475 136.221C34.7236 136.4 34.0355 136.724 33.4198 137.03C32.8765 137.318 31.9534 137.623 31.7892 138.202C31.7161 138.527 31.9146 138.709 32.2399 138.782C32.8004 138.874 33.4348 138.333 33.9057 138.063C34.5214 137.757 35.1549 137.523 35.8788 137.344C37.1639 136.949 38.5752 136.754 39.9498 136.722C41.3245 136.689 42.6804 136.892 43.9275 137.275C44.5782 137.421 45.2469 137.64 45.8611 137.95C46.2044 138.095 46.4574 138.186 46.8007 138.332C47.1439 138.478 47.3611 138.424 47.6865 138.497C47.8492 138.534 47.9581 138.353 47.8499 138.226Z" fill="#E7EFF2"/>
</g>
<g id="Group_3">
<path id="Vector_4" d="M49.2943 109.28C48.9159 108.682 48.2838 108.3 47.7241 107.901C47.0017 107.464 46.207 107.046 45.4301 106.7C43.8039 106.026 42.0688 105.533 40.3151 105.275C37.6031 104.87 34.2732 105.694 32.3694 107.625C31.6985 108.329 32.7814 109.29 33.3978 108.677C35.1023 106.872 37.9613 106.319 40.4203 106.633C42.0114 106.854 43.5114 107.328 45.0293 107.875C45.7159 108.167 46.4025 108.458 47.107 108.822C47.7212 109.131 48.2808 109.53 48.9316 109.677C49.1846 109.768 49.4383 109.552 49.2943 109.28Z" fill="#E7EFF2"/>
</g>
<g id="Group_4">
<path id="Vector_5" d="M46.2793 152.064C46.2084 158.921 46.1919 165.689 46.121 172.546C46.0277 181.176 45.6269 189.806 45.2985 198.418C45.1067 202.923 44.897 207.355 44.7776 211.842C44.7216 212.548 45.8791 212.569 45.9351 211.864C46.2082 203.65 46.4635 195.363 46.6464 187.095C46.8471 178.899 47.1203 170.685 47.1584 162.452C47.1487 158.996 47.139 155.54 46.8218 152.084C46.8047 151.704 46.2621 151.684 46.2793 152.064Z" fill="#D8E5E5"/>
</g>
<g id="Group_5">
<path id="Vector_6" d="M43.1563 149.685C42.7899 151.62 43.0018 153.72 42.9428 155.656C42.9742 157.646 42.9876 159.564 42.9465 161.573C42.9368 165.571 42.945 169.642 42.8629 173.659C42.7711 181.674 42.5345 189.726 42.1352 197.74C41.871 202.263 41.6971 206.84 41.2881 211.399C41.25 212.177 42.5702 212.234 42.6082 211.457C43.3165 195.373 43.9525 179.307 43.9734 163.24C43.9607 161.014 43.9301 158.716 43.9175 156.491C43.9048 154.265 44.0914 151.913 43.572 149.813C43.6272 149.415 43.2294 149.36 43.1563 149.685Z" fill="#D8E5E5"/>
</g>
<g id="Group_6">
<path id="Vector_7" d="M37.2966 149.597C37.1108 151.642 37.1601 153.704 37.119 155.713C37.078 157.721 37.0548 159.802 37.0138 161.81C36.8593 165.845 36.7048 169.879 36.3876 173.877C35.898 181.837 35.1912 189.851 34.8643 197.848C34.6904 202.425 34.5889 206.984 34.5598 211.526C34.5217 212.304 35.824 212.289 35.7897 211.529C35.4837 203.458 36.0643 195.245 36.536 187.213C37.0801 179.162 37.7145 171.167 37.9511 163.115C37.9929 160.799 38.125 158.538 38.0944 156.24C38.0817 154.014 38.1235 151.699 37.8034 149.472C37.8765 149.147 37.3698 149.272 37.2966 149.597Z" fill="#D8E5E5"/>
</g>
<g id="Group_7">
<path id="Vector_8" d="M40.7694 149.353C40.5836 151.397 40.6328 153.46 40.5918 155.469C40.5507 157.477 40.5276 159.558 40.4866 161.566C40.3321 165.601 40.1776 169.635 39.8604 173.633C39.3708 181.593 38.664 189.607 38.3371 197.603C38.1632 202.181 38.0617 206.74 38.0326 211.282C37.9945 212.06 39.2968 212.045 39.2625 211.285C38.9565 203.214 39.5372 195.001 40.0088 186.969C40.5529 178.918 41.1873 170.922 41.4239 162.871C41.4657 160.555 41.5978 158.294 41.5672 155.996C41.5545 153.77 41.5963 151.454 41.2762 149.228C41.2769 148.92 40.7702 149.046 40.7694 149.353Z" fill="#D8E5E5"/>
</g>
<g id="Group_8">
<path id="Vector_9" d="M33.4564 151.777C33.5116 158.833 33.6937 165.782 33.4414 172.838C33.169 180.744 32.5891 188.65 32.0995 196.61C31.7793 201.838 31.4591 207.066 31.0487 212.24C30.9927 212.946 32.2405 213.021 32.2785 212.243C32.7353 202.908 33.3547 193.61 33.9018 184.329C34.281 177.165 34.6601 170 34.6594 162.853C34.6684 159.162 34.6594 155.399 33.999 151.796C33.9094 151.434 33.4572 151.469 33.4564 151.777Z" fill="#D8E5E5"/>
</g>
</g>
</g>
<path id="Rope" d="M28.1055 125.595C28.4252 125.2 32.2995 123.432 37.0998 122.872M52.4163 128.318C48.3783 123.051 42.2135 122.276 37.0998 122.872M37.0998 0V122.872" stroke="#0D0842"/>
</g>
<g id="Books_4">
<g id="Books_5">
<g id="Group_9">
<path id="Vector_10" d="M110.255 147.063C110.184 143.935 111.932 141.364 114.272 141.292L119.883 141.107C122.151 141.058 124.079 143.551 124.201 146.586L125.325 189.478L126.495 189.443C126.712 188.591 126.784 187.781 126.813 186.828L124.013 80.0253C123.891 76.2034 121.625 73.103 118.974 73.1884L111.716 73.3944C109.066 73.4799 106.942 76.636 107.064 80.4578L109.864 187.26C109.907 188.192 110.022 189.103 110.26 189.898L111.43 189.862L110.255 147.063Z" fill="#FDAF17"/>
<path id="Vector_11" d="M110.32 147.28C110.249 144.151 111.997 141.58 114.337 141.509L119.948 141.324C122.216 141.275 124.143 143.768 124.266 146.802L125.397 189.457L126.95 189.385L125.131 121.582C125.009 117.76 122.742 114.659 120.091 114.745L112.833 114.951C110.183 115.036 108.059 118.192 108.181 122.014L110 189.818L111.553 189.746L110.32 147.28Z" fill="#FDAF17"/>
<path id="Vector_12" d="M125.275 188.785L123.556 123.156C123.441 119.883 121.564 117.296 119.224 117.367L113.613 117.552C111.345 117.602 109.547 120.267 109.589 123.561L111.308 189.19C111.308 189.19 113.786 186.164 118.133 185.964C122.77 185.677 125.275 188.785 125.275 188.785Z" fill="#E7EFF2"/>
</g>
<g id="Group_10">
<path id="Vector_13" d="M122.279 115.743C122.206 118.127 122.444 120.497 122.516 122.837C122.587 125.178 122.847 127.62 123.157 129.968C123.632 134.708 124.057 139.541 124.295 144.274C124.885 153.861 124.998 163.434 124.895 173.071C124.872 178.511 124.683 183.922 124.494 189.333C124.436 191.241 127.325 191.163 127.383 189.255C127.972 169.944 128.012 150.64 126.045 131.465C125.793 128.785 125.447 126.054 124.884 123.388C124.567 122.065 124.199 120.837 123.881 119.515C123.564 118.192 123.268 116.942 122.806 115.664C122.698 115.302 122.243 115.36 122.279 115.743Z" fill="#FDAF17"/>
</g>
<g id="Group_11">
<path id="Vector_14" d="M108.154 76.745C108.422 76.5862 108.617 76.449 108.905 76.3625L108.884 76.2902C108.617 76.449 108.349 76.6078 108.154 76.745C108.104 76.8389 108.082 76.7667 108.154 76.745Z" fill="#F3B953"/>
</g>
<g id="Group_12">
<path id="Vector_15" d="M109.064 75.0548C107.779 75.755 106.999 77.0912 106.81 78.5649C106.543 80.2987 106.42 81.9892 106.297 83.6797C105.992 87.393 105.782 91.1569 105.644 94.8991C105.433 102.6 105.605 110.266 105.848 117.91C106.042 125.647 106.452 133.32 106.551 141.007C106.672 148.766 106.938 156.482 107.391 164.299C107.643 168.555 107.844 172.904 108.262 177.189C108.435 179.342 108.701 181.545 108.874 183.698C109.069 185.923 109.213 188.243 109.768 190.36C110.172 191.971 112.382 191.466 112.455 189.87C112.585 187.941 112.333 186.048 112.174 184.206C111.994 182.291 111.908 180.427 111.8 178.491C111.534 174.712 111.267 170.934 111.073 167.133C110.613 159.554 110.297 151.932 110.147 144.339C110.018 136.818 109.746 129.341 109.545 121.842C109.251 114.292 108.978 106.814 108.994 99.25C109.002 95.0741 109.176 90.9273 109.423 86.7588C109.532 84.7577 109.785 82.7132 109.944 80.6182C109.988 79.9752 110.01 79.26 110.075 78.6893C110.19 78.0246 110.068 77.3527 110.537 76.8183C111.332 75.7928 110.155 74.4918 109.064 75.0548Z" fill="#FDAF17"/>
</g>
<g id="Group_13">
<path id="Vector_16" d="M122.107 76.0291C121.797 75.2559 121.219 74.6415 120.591 74.1211C119.963 73.6006 119.313 73.0079 118.583 72.6752C116.865 71.9302 114.908 71.9654 113.044 72.0512C111.347 72.166 109.823 72.8588 108.754 74.2816C107.858 75.4949 106.767 77.6328 107.894 79.0277C108.146 79.3457 108.695 79.3387 108.963 79.1799C110.01 78.4724 109.916 76.8468 110.711 75.8213C111.535 74.6297 112.755 74.5002 114.069 74.4214C115.456 74.3209 116.936 74.271 118.323 74.958C119.449 75.5654 120.46 76.8374 121.876 76.5708C122.02 76.5275 122.15 76.1736 122.107 76.0291Z" fill="#FDAF17"/>
</g>
<g id="Group_14">
<path id="Vector_17" d="M116.308 74.5381C117.659 74.0547 119.276 74.9874 120.128 75.9921C121.233 77.3147 121.507 79.2799 121.644 81.05C122.033 85.5005 122.205 90.016 122.45 94.5098C122.91 103.664 123.132 112.81 123.209 122C123.252 124.507 123.222 127.035 123.265 129.542C123.25 130.807 123.308 132.049 123.293 133.314C123.322 133.935 123.372 134.628 123.473 135.228C123.596 135.9 123.935 136.507 124.079 137.251C124.202 137.923 125.278 137.837 125.415 137.245C125.553 136.652 125.784 136.111 125.921 135.518C126.059 134.926 126.081 134.211 126.052 133.589C126.067 132.325 126.009 131.082 126.024 129.818C126.003 127.383 125.909 124.97 125.91 122.608C125.795 117.76 125.703 112.985 125.516 108.159C125.38 103.239 125.171 98.3401 124.941 93.3695C124.848 90.9565 124.682 88.565 124.517 86.1736C124.395 83.9267 124.272 81.6798 123.933 79.4978C123.594 77.3158 122.851 75.0975 121.154 73.6373C119.501 72.3217 117.435 71.9956 115.702 73.3024C115.095 73.6416 115.514 74.7761 116.308 74.5381Z" fill="#FDAF17"/>
</g>
<g id="Group_15">
<path id="Vector_18" d="M124.854 125.916C125.201 124.71 124.956 123.366 124.754 122.167C124.479 120.989 124.018 119.71 123.332 118.734C121.642 116.248 119.043 115.452 116.284 115.176C114.905 115.038 113.525 114.9 112.204 115.218C110.738 115.578 109.654 116.69 108.852 117.954C107.429 120.034 105.319 124.288 107.738 126.32C108.157 126.667 108.872 126.689 109.175 126.125C109.457 125.49 109.587 125.136 109.703 124.471C109.79 123.973 109.927 123.38 110.086 122.86C110.382 121.748 110.888 120.809 111.466 119.848C111.943 119.076 112.485 118.519 113.373 118.332C114.427 118.174 115.568 118.304 116.616 118.384C118.565 118.587 120.147 119.137 121.287 120.843C122.334 122.498 122.507 124.651 123.655 126.118C123.951 126.58 124.644 126.53 124.854 125.916Z" fill="#FDAF17"/>
</g>
<path id="Vector_19" d="M121.941 111.198C122.035 110.461 122.114 109.414 121.681 108.756C121.855 108.547 121.956 108.359 121.869 108.07C121.386 106.719 120.014 106.342 118.808 105.995C117.529 105.669 116.244 105.582 114.93 105.661C113.687 105.718 112.156 105.862 111.087 106.497C109.607 107.334 110.292 109.098 110.61 110.42C110.783 110.998 111.411 111.518 112.032 111.49C113.419 111.389 114.921 111.412 116.279 111.477C117.636 111.543 119.16 111.638 120.482 112.108C121.023 112.339 121.825 111.863 121.941 111.198Z" fill="#E7EFF2"/>
<g id="Group_16">
<path id="Vector_20" d="M112.025 76.53C111.599 77.209 111.664 78.2132 111.591 79.0223C111.562 79.976 111.512 80.8573 111.555 81.7893C111.547 83.6027 111.583 85.5606 111.886 87.3597C112.131 88.7036 114.052 88.2854 114.067 87.0211C114.074 85.2078 113.771 83.4087 113.635 81.6386C113.541 80.8005 113.498 79.8685 113.404 79.0304C113.332 78.2646 113.289 77.3326 112.906 76.5811C112.704 76.1692 112.228 76.1545 112.025 76.53Z" fill="#E7EFF2"/>
</g>
<g id="Group_17">
<path id="Vector_21" d="M115.434 76.6111C114.574 78.9948 114.769 82.0075 115.194 84.4786C115.317 85.1505 115.707 85.6636 116.4 85.6134C116.949 85.6064 117.563 85.0287 117.534 84.4074C117.383 83.1141 117.21 81.7486 117.13 80.4337C117.051 79.1188 116.972 77.8039 116.676 76.5539C116.481 75.9036 115.665 76.0694 115.434 76.6111Z" fill="#E7EFF2"/>
</g>
<g id="Group_18">
<path id="Vector_22" d="M118.655 76.591C118.25 78.1296 118.481 79.9503 118.481 81.5253C118.481 82.3128 118.574 83.1509 118.596 84.0106C118.617 84.8703 118.617 85.6578 119.021 86.4816C119.339 87.0164 120.22 87.0674 120.502 86.4318C120.812 85.63 120.762 84.9364 120.762 84.1489C120.741 83.2892 120.719 82.4294 120.604 81.5191C120.438 79.9151 120.518 78.0801 119.919 76.606C119.63 75.9051 118.843 75.9047 118.655 76.591Z" fill="#E7EFF2"/>
</g>
<g id="Group_19">
<path id="Vector_23" d="M119.496 122.482C119.431 124.628 119.647 126.925 119.748 129.1C119.827 131.202 119.978 133.283 120.057 135.385C120.236 139.663 120.51 143.99 120.689 148.267C121.099 156.727 121.126 165.224 121.37 173.655C121.484 178.503 121.577 183.278 121.598 188.075C121.612 189.173 123.259 189.152 123.244 188.054C123.123 179.508 122.909 170.91 122.528 162.284C122.348 158.007 122.075 153.679 121.895 149.402C121.716 145.125 121.536 140.848 121.263 136.52C121.097 134.129 120.931 131.737 120.766 129.346C120.622 127.027 120.529 124.614 120.168 122.36C120.11 121.904 119.46 122.099 119.496 122.482Z" fill="#D8E5E5"/>
</g>
<g id="Group_20">
<path id="Vector_24" d="M116.724 119.533C117.334 137.067 117.944 154.602 118.388 172.107C118.524 177.027 118.66 181.947 118.797 186.867C118.811 187.965 120.436 187.872 120.443 186.846C119.905 169.29 119.151 151.799 118.303 134.258C118.073 129.287 117.792 124.41 117.49 119.461C117.36 119.028 116.667 119.078 116.724 119.533Z" fill="#D8E5E5"/>
</g>
<g id="Group_21">
<path id="Vector_25" d="M113.843 120.948C113.352 122.985 113.64 125.261 113.697 127.291C113.776 129.393 113.855 131.496 113.934 133.598C114.063 137.969 114.264 142.318 114.394 146.689C114.68 155.265 114.917 163.934 115.204 172.51C115.34 177.43 115.454 182.278 115.591 187.198C115.626 188.368 117.345 188.326 117.309 187.155C116.858 169.888 116.169 152.614 115.313 135.311C115.22 132.898 115.054 130.506 114.961 128.093C114.903 126.851 114.868 125.68 114.738 124.459C114.608 123.238 114.572 122.068 114.226 120.912C114.183 120.767 113.944 120.76 113.843 120.948Z" fill="#D8E5E5"/>
</g>
<g id="Group_22">
<path id="Vector_26" d="M111.755 124.487C111.675 125.534 111.552 126.437 111.545 127.463C111.537 128.489 111.457 129.537 111.472 130.635C111.457 132.687 111.442 134.738 111.427 136.79C111.448 140.8 111.447 144.737 111.612 148.704C111.82 156.752 112.193 164.829 112.639 172.885C112.833 177.472 113.121 182.111 113.46 186.655C113.481 187.515 114.817 187.508 114.702 186.598C113.572 170.479 113.156 154.383 112.647 138.236C112.575 135.895 112.525 133.626 112.381 131.307C112.346 130.137 112.31 128.966 112.296 127.868C112.26 126.698 112.152 125.549 112.044 124.4C112.022 124.328 111.784 124.321 111.755 124.487Z" fill="#D8E5E5"/>
</g>
</g>
<path id="Rope_2" d="M105.569 98.7064C105.569 98.7064 109.673 95.5711 114.9 95.1277M125.111 98.7064C121.744 95.5984 118.111 94.8554 114.9 95.1277M114.9 0.680725V95.1277" stroke="#0D0842"/>
</g>
<g id="Books_6">
<g id="Books_7">
<g id="Group_23">
<path id="Vector_27" d="M169.219 212.609L163.042 141.523C162.705 138.036 162.597 131.206 165.899 130.882L176.731 129.939C180.033 129.615 183.359 136.22 183.695 139.708L189.315 210.74C189.315 210.74 185.334 207.97 178.993 208.414C172.375 208.877 169.219 212.609 169.219 212.609Z" fill="#E7EFF2"/>
</g>
<path id="Vector_28" d="M179.919 88.4123C177.428 85.8146 172.409 84.0408 168.371 84.4159C165.069 84.7395 157.6 88.8661 156.951 92.7923C156.714 93.3634 156.582 94.1118 156.528 94.67C156.356 96.1605 156.367 97.6381 156.292 99.2142C156.326 103.647 156.543 108.067 156.852 112.481C157.416 121.866 158.349 131.226 158.914 140.611C159.506 149.071 160.288 157.609 161.156 166.049C162.012 174.306 162.775 182.568 163.538 190.831C163.939 195.238 164.517 199.54 165.194 203.928C165.369 205.117 165.539 206.214 165.806 207.397C165.812 207.489 165.825 207.672 165.832 207.764C165.986 209.971 166.233 212.172 167.024 214.241C167.364 215.142 168.204 215.268 169.078 214.56C169.427 214.258 169.501 212.682 169.475 212.314L163.354 143.35C163.289 142.43 163.219 141.419 163.154 140.499C163.218 137.445 166.149 134.468 171.187 132.545C176.854 130.392 181.43 135.061 182.503 137.204C182.822 139.122 183.148 141.132 183.467 143.05L184.683 156.456C184.695 156.64 184.702 156.731 184.715 156.915C184.959 160.409 185.21 163.996 185.547 167.483C186.128 174.465 186.801 181.44 187.382 188.422C187.751 192.37 188.034 196.415 188.311 200.369C188.601 204.507 188.7 208.566 189.174 212.691C189.382 214.339 191.673 214.087 191.747 212.511C191.772 208.905 191.514 205.227 191.257 201.549C191.006 197.963 190.755 194.377 190.412 190.797C189.824 183.724 189.151 176.748 188.563 169.675C187.982 162.693 187.585 155.698 187.096 148.71C186.999 147.331 186.817 146.05 186.629 144.677C186.992 143.265 186.777 141.525 186.674 140.054C186.46 138.313 186.154 136.579 186.025 134.74C185.631 130.425 185.702 126.169 185.4 121.847C184.795 113.204 183.723 104.501 182.751 95.8833C182.511 93.7749 182.179 91.6729 181.039 89.9047C180.731 89.4642 180.423 89.0238 180.122 88.6753C180.023 88.5898 180.017 88.4978 179.919 88.4123Z" fill="#8170F2"/>
<g id="Group_24">
<path id="Vector_29" d="M165.86 139.57C166.189 148.233 167.622 156.819 168.404 165.357C168.837 170.224 169.08 175.012 169.329 179.892C169.572 184.68 169.907 189.461 170.15 194.249C170.444 199.772 170.831 205.289 171.125 210.813C171.176 211.548 172.371 211.465 172.32 210.729C171.736 201.068 171.152 191.407 170.659 181.739C170.101 172.446 169.628 163.054 168.335 153.812C167.632 149.056 166.838 144.307 166.326 139.63C166.3 139.262 165.841 139.295 165.86 139.57Z" fill="#D8E5E5"/>
</g>
<g id="Group_25">
<path id="Vector_30" d="M169.135 134.906C168.941 137.414 169.292 139.792 169.558 142.268C169.817 144.653 170.077 147.037 170.25 149.52C170.775 154.38 171.209 159.247 171.55 164.12C172.403 173.67 173.079 183.325 173.84 192.882C174.233 198.491 174.528 204.014 175.104 209.61C175.149 210.254 176.16 210.183 176.115 209.539C175.61 199.688 174.737 189.862 173.957 180.03C173.195 170.473 172.427 160.825 171.482 151.281C171.197 148.529 171.004 145.771 170.719 143.019C170.44 140.359 170.247 137.6 169.509 134.972C169.49 134.696 169.214 134.716 169.135 134.906Z" fill="#D8E5E5"/>
</g>
<g id="Group_26">
<path id="Vector_31" d="M172.877 134.274C173.474 144.119 174.623 153.926 175.403 163.758C176.178 173.498 176.762 183.16 177.26 192.919C177.561 198.535 177.77 204.157 178.071 209.772C178.122 210.508 179.317 210.424 179.266 209.688C178.354 190.071 177.442 170.453 175.428 150.913C174.851 145.316 174.183 139.727 173.337 134.242C173.226 133.973 172.858 133.998 172.877 134.274Z" fill="#D8E5E5"/>
</g>
<g id="Group_27">
<path id="Vector_32" d="M176.139 134.693C176.221 137.182 176.762 139.639 177.028 142.115C177.294 144.591 177.651 147.061 177.917 149.537C178.436 154.306 178.954 159.074 179.289 163.856C180.051 173.412 180.543 183.08 181.12 192.649C181.408 198.081 181.795 203.598 182.174 209.023C182.232 209.85 183.519 209.76 183.461 208.933C182.011 189.538 181.578 170.164 179.392 150.82C179.107 148.068 178.73 145.322 178.353 142.577C177.983 139.923 177.6 137.085 176.868 134.549C176.652 134.102 176.107 134.233 176.139 134.693Z" fill="#D8E5E5"/>
</g>
<g id="Group_28">
<path id="Vector_33" d="M180.411 136.334C180.302 138.744 180.568 141.22 180.742 143.703C180.909 146.094 181.083 148.576 181.342 150.961C181.769 155.736 182.202 160.603 182.537 165.384C183.292 174.849 184.053 184.405 184.716 193.876C184.903 196.542 185.09 199.209 185.185 201.882C185.281 203.261 185.279 204.555 185.376 205.934C185.473 207.314 185.477 208.699 185.758 210.066C185.875 210.427 186.427 210.388 186.493 210.014C186.792 207.683 186.434 205.213 186.365 202.908C186.197 200.518 186.116 198.028 185.948 195.638C185.613 190.856 185.272 185.983 184.937 181.201C184.17 171.553 183.408 161.997 182.548 152.355C182.362 149.688 182.083 147.028 181.804 144.368C181.526 141.708 181.425 138.943 180.864 136.21C180.845 135.934 180.483 136.052 180.411 136.334Z" fill="#D8E5E5"/>
</g>
</g>
<path id="Rope_3" d="M156.976 114.704C156.976 114.704 162.613 108.777 170.59 108.511M184.886 114.704C179.788 109.843 174.855 108.368 170.59 108.511M170.59 108.511V0" stroke="#0D0842"/>
</g>
</g>
</svg>
