<svg width="193" height="221" viewBox="0 0 193 221" fill="none" xmlns="http://www.w3.org/2000/svg">
<g id="Books">
<g id="Books_2">
<g id="Books_3">
<g id="Group">
<path id="Vector" d="M49.3545 213.698L50.7734 150.789C50.8533 147.695 48.3294 144.323 45.0935 143.663C43.2315 143.278 38.3666 143.175 36.1949 143.712C32.8829 144.608 32.3873 147.574 31.7657 150.34L30.3468 213.249C30.3468 213.249 33.8983 210.527 39.9029 210.579C46.1246 210.577 49.3545 213.698 49.3545 213.698Z" fill="#E7EFF2"/>
<path id="Vector_2" d="M30.3798 214.317C30.3999 213.467 30.4022 212.544 30.4223 211.693C30.4985 210.138 30.4843 208.527 30.5604 206.971C30.6746 204.637 30.7164 202.322 30.8127 199.915C30.9866 195.338 31.0702 190.706 31.2441 186.129C31.5173 177.915 31.4465 154.954 31.6928 150.358C32.1637 142.633 47.8647 141.825 50.305 149.829C50.5744 150.607 50.3087 163.2 50.2833 166.204L49.9982 179.339C49.8026 185.382 49.5168 191.37 49.2309 197.359C49.0794 200.163 49.0003 202.949 48.9212 205.735C48.8242 208.449 48.9077 211.272 48.5756 213.967C48.4652 214.763 49.3316 215.471 50.0913 215.437C50.9047 215.352 51.7749 214.79 51.6682 214.048C51.3846 211.658 51.5354 209.162 51.5414 206.701C51.5473 204.24 51.6257 201.762 51.6862 199.211C51.825 194.181 51.9638 189.151 52.175 184.104C52.4288 176.432 52.8094 168.653 52.5207 160.962L52.8207 149.13L53.7119 109.868C53.8082 107.462 52.5112 105.323 50.597 104.106C50.2178 103.816 49.8567 103.597 49.5678 103.361C48.4663 102.635 47.238 102.016 45.973 101.561C43.5155 100.631 40.7856 100.154 38.1445 100.346C35.3408 100.501 32.7519 101.526 31.6243 104.11C31.5332 104.363 31.3698 104.634 31.2966 104.96C30.5153 106.459 30.1496 108.087 29.9287 109.679C29.6533 111.361 29.4503 113.025 29.41 114.725C29.2025 118.235 29.1398 121.709 29.0226 125.273C28.8062 132.474 28.6621 139.657 28.5002 146.767C28.1397 161.151 27.8695 175.589 27.509 189.973C27.2723 198.024 26.9633 206.093 26.8894 214.181C26.8118 216.352 30.3746 216.47 30.3798 214.317Z" fill="#F6CF3C"/>
<g id="Group_2">
<path id="Vector_3" d="M48.7425 138.226C48.5261 137.972 48.5627 137.81 48.2918 137.646C48.0029 137.41 47.6597 137.264 47.2985 137.046C46.6843 136.737 45.9977 136.446 45.329 136.227C43.9014 135.735 42.3282 135.586 40.7909 135.582C39.3259 135.56 37.7699 135.791 36.3401 136.221C35.6162 136.4 34.9281 136.724 34.3124 137.03C33.7691 137.318 32.846 137.623 32.6818 138.202C32.6086 138.527 32.8071 138.709 33.1325 138.782C33.693 138.874 34.3273 138.333 34.7982 138.063C35.4139 137.757 36.0475 137.523 36.7714 137.344C38.0565 136.949 39.4677 136.754 40.8424 136.722C42.217 136.689 43.573 136.892 44.8201 137.275C45.4708 137.421 46.1395 137.64 46.7537 137.95C47.097 138.095 47.3499 138.186 47.6932 138.332C48.0365 138.478 48.2537 138.424 48.5791 138.497C48.7418 138.534 48.8507 138.353 48.7425 138.226Z" fill="#E7EFF2"/>
</g>
<g id="Group_3">
<path id="Vector_4" d="M50.1859 109.28C49.8075 108.682 49.1754 108.3 48.6157 107.901C47.8933 107.464 47.0986 107.046 46.3217 106.7C44.6955 106.026 42.9604 105.533 41.2067 105.275C38.4947 104.87 35.1648 105.694 33.261 107.625C32.5901 108.329 33.673 109.29 34.2894 108.677C35.9939 106.872 38.8529 106.319 41.3119 106.633C42.903 106.854 44.403 107.328 45.9209 107.875C46.6075 108.167 47.2941 108.458 47.9986 108.822C48.6128 109.131 49.1725 109.53 49.8232 109.677C50.0762 109.768 50.3299 109.552 50.1859 109.28Z" fill="#E7EFF2"/>
</g>
<g id="Group_4">
<path id="Vector_5" d="M47.1709 152.064C47.1 158.921 47.0835 165.689 47.0126 172.546C46.9193 181.176 46.5185 189.806 46.1901 198.418C45.9983 202.923 45.7886 207.355 45.6692 211.842C45.6132 212.548 46.7707 212.569 46.8267 211.864C47.0998 203.65 47.3551 195.363 47.538 187.095C47.7387 178.899 48.0119 170.685 48.05 162.452C48.0403 158.996 48.0306 155.54 47.7134 152.084C47.6963 151.704 47.1537 151.684 47.1709 152.064Z" fill="#D8E5E5"/>
</g>
<g id="Group_5">
<path id="Vector_6" d="M44.0469 149.685C43.6805 151.62 43.8924 153.72 43.8334 155.656C43.8648 157.646 43.8782 159.564 43.8372 161.573C43.8274 165.571 43.8356 169.642 43.7535 173.659C43.6617 181.674 43.4251 189.726 43.0258 197.74C42.7616 202.263 42.5877 206.84 42.1787 211.399C42.1406 212.177 43.4608 212.234 43.4989 211.457C44.2072 195.373 44.8431 179.307 44.864 163.24C44.8514 161.014 44.8208 158.716 44.8081 156.491C44.7954 154.265 44.982 151.913 44.4626 149.813C44.5178 149.415 44.1201 149.36 44.0469 149.685Z" fill="#D8E5E5"/>
</g>
<g id="Group_6">
<path id="Vector_7" d="M38.1883 149.597C38.0024 151.642 38.0517 153.704 38.0106 155.713C37.9696 157.721 37.9464 159.802 37.9054 161.81C37.7509 165.845 37.5964 169.879 37.2792 173.877C36.7896 181.837 36.0828 189.851 35.7559 197.848C35.582 202.425 35.4805 206.984 35.4514 211.526C35.4133 212.304 36.7156 212.289 36.6813 211.529C36.3753 203.458 36.9559 195.245 37.4276 187.213C37.9717 179.162 38.6061 171.167 38.8427 163.115C38.8845 160.799 39.0166 158.538 38.986 156.24C38.9733 154.014 39.0151 151.699 38.695 149.472C38.7681 149.147 38.2614 149.272 38.1883 149.597Z" fill="#D8E5E5"/>
</g>
<g id="Group_7">
<path id="Vector_8" d="M41.661 149.353C41.4752 151.397 41.5244 153.46 41.4834 155.469C41.4423 157.477 41.4192 159.558 41.3782 161.566C41.2237 165.601 41.0692 169.635 40.752 173.633C40.2624 181.593 39.5556 189.607 39.2287 197.603C39.0548 202.181 38.9533 206.74 38.9242 211.282C38.8861 212.06 40.1884 212.045 40.1541 211.285C39.8481 203.214 40.4288 195.001 40.9004 186.969C41.4445 178.918 42.0789 170.922 42.3155 162.871C42.3573 160.555 42.4894 158.294 42.4588 155.996C42.4461 153.77 42.4879 151.454 42.1678 149.228C42.1685 148.92 41.6618 149.046 41.661 149.353Z" fill="#D8E5E5"/>
</g>
<g id="Group_8">
<path id="Vector_9" d="M34.348 151.777C34.4032 158.833 34.5853 165.782 34.333 172.838C34.0606 180.744 33.4807 188.65 32.9911 196.61C32.6709 201.838 32.3507 207.066 31.9403 212.24C31.8843 212.946 33.1321 213.021 33.1701 212.243C33.6269 202.908 34.2463 193.61 34.7934 184.329C35.1726 177.165 35.5517 170 35.551 162.853C35.56 159.162 35.551 155.399 34.8906 151.796C34.801 151.434 34.3488 151.469 34.348 151.777Z" fill="#D8E5E5"/>
</g>
</g>
</g>
<path id="Rope" d="M28.9971 125.595C29.3168 125.2 33.1911 123.432 37.9914 122.872M53.3079 128.318C49.2699 123.051 43.1051 122.276 37.9914 122.872M37.9914 0V122.872" stroke="#0D0842"/>
</g>
<g id="Books_4">
<g id="Books_5">
<g id="Group_9">
<path id="Vector_10" d="M111.145 147.063C111.074 143.935 112.822 141.363 115.162 141.292L120.773 141.107C123.041 141.058 124.968 143.551 125.09 146.585L126.215 189.478L127.385 189.443C127.602 188.59 127.674 187.781 127.703 186.828L124.903 80.0252C124.781 76.2033 122.514 73.1029 119.864 73.1883L112.606 73.3944C109.955 73.4798 107.832 76.6359 107.953 80.4578L110.753 187.26C110.797 188.192 110.912 189.103 111.15 189.897L112.32 189.862L111.145 147.063Z" fill="#60C697"/>
<path id="Vector_11" d="M111.21 147.28C111.138 144.151 112.887 141.58 115.226 141.509L120.838 141.324C123.105 141.274 125.033 143.768 125.155 146.802L126.287 189.457L127.84 189.385L126.02 121.582C125.898 117.76 123.631 114.659 120.981 114.745L113.723 114.951C111.073 115.036 108.949 118.192 109.071 122.014L110.89 189.818L112.443 189.746L111.21 147.28Z" fill="#60C697"/>
<path id="Vector_12" d="M126.165 188.785L124.446 123.156C124.331 119.883 122.454 117.296 120.114 117.367L114.503 117.552C112.235 117.602 110.436 120.267 110.479 123.561L112.198 189.19C112.198 189.19 114.675 186.164 119.023 185.964C123.659 185.677 126.165 188.785 126.165 188.785Z" fill="#E7EFF2"/>
</g>
<g id="Group_10">
<path id="Vector_13" d="M123.169 115.743C123.096 118.127 123.334 120.497 123.405 122.837C123.477 125.178 123.736 127.62 124.046 129.968C124.522 134.708 124.947 139.541 125.184 144.274C125.774 153.861 125.888 163.434 125.785 173.071C125.762 178.511 125.573 183.922 125.384 189.333C125.326 191.241 128.214 191.163 128.272 189.255C128.862 169.944 128.902 150.64 126.935 131.465C126.683 128.785 126.337 126.054 125.774 123.388C125.456 122.065 125.088 120.837 124.771 119.515C124.453 118.192 124.158 116.942 123.696 115.664C123.587 115.302 123.132 115.36 123.169 115.743Z" fill="#60C697"/>
</g>
<g id="Group_11">
<path id="Vector_14" d="M109.044 76.745C109.311 76.5862 109.506 76.449 109.795 76.3624L109.773 76.2902C109.506 76.449 109.239 76.6078 109.044 76.745C108.993 76.8389 108.972 76.7666 109.044 76.745Z" fill="#F3B953"/>
</g>
<g id="Group_12">
<path id="Vector_15" d="M109.955 75.0548C108.669 75.7549 107.889 77.0911 107.701 78.5648C107.433 80.2986 107.31 81.9891 107.187 83.6796C106.883 87.3929 106.673 91.1568 106.535 94.8991C106.324 102.6 106.495 110.266 106.739 117.91C106.932 125.647 107.342 133.32 107.442 141.007C107.563 148.766 107.828 156.482 108.281 164.299C108.533 168.555 108.735 172.904 109.152 177.189C109.325 179.342 109.592 181.545 109.765 183.698C109.959 185.923 110.103 188.243 110.659 190.36C111.063 191.971 113.273 191.466 113.345 189.87C113.476 187.941 113.224 186.048 113.065 184.205C112.885 182.291 112.799 180.427 112.691 178.491C112.424 174.712 112.158 170.933 111.964 167.133C111.503 159.554 111.187 151.932 111.037 144.339C110.909 136.818 110.636 129.341 110.436 121.841C110.141 114.292 109.869 106.814 109.885 99.2499C109.893 95.0741 110.067 90.9273 110.313 86.7588C110.422 84.7576 110.675 82.7132 110.835 80.6182C110.878 79.9752 110.9 79.2599 110.965 78.6892C111.081 78.0246 110.958 77.3527 111.428 76.8183C112.222 75.7928 111.046 74.4918 109.955 75.0548Z" fill="#60C697"/>
</g>
<g id="Group_13">
<path id="Vector_16" d="M122.997 76.0291C122.687 75.2559 122.11 74.6415 121.481 74.1211C120.853 73.6006 120.203 73.0079 119.474 72.6752C117.755 71.9302 115.798 71.9654 113.935 72.0512C112.238 72.166 110.714 72.8588 109.645 74.2816C108.749 75.4949 107.658 77.6328 108.784 79.0277C109.037 79.3457 109.586 79.3387 109.853 79.1799C110.9 78.4724 110.807 76.8468 111.602 75.8213C112.425 74.6297 113.646 74.5002 114.96 74.4214C116.347 74.3209 117.827 74.271 119.214 74.958C120.34 75.5654 121.351 76.8374 122.766 76.5708C122.911 76.5275 123.041 76.1736 122.997 76.0291Z" fill="#60C697"/>
</g>
<g id="Group_14">
<path id="Vector_17" d="M117.199 74.538C118.549 74.0546 120.167 74.9874 121.019 75.992C122.124 77.3146 122.398 79.2798 122.534 81.0499C122.923 85.5005 123.096 90.0159 123.34 94.5097C123.8 103.664 124.022 112.81 124.1 122C124.142 124.507 124.113 127.035 124.156 129.542C124.141 130.806 124.198 132.049 124.184 133.313C124.213 133.935 124.263 134.628 124.364 135.228C124.487 135.9 124.826 136.507 124.97 137.251C125.093 137.923 126.169 137.837 126.306 137.245C126.443 136.652 126.675 136.111 126.812 135.518C126.949 134.926 126.971 134.211 126.942 133.589C126.957 132.325 126.9 131.082 126.914 129.818C126.893 127.383 126.8 124.97 126.8 122.608C126.686 117.76 126.593 112.985 126.406 108.158C126.27 103.238 126.062 98.3401 125.832 93.3695C125.739 90.9564 125.573 88.565 125.407 86.1735C125.285 83.9266 125.163 81.6797 124.824 79.4977C124.485 77.3158 123.742 75.0974 122.045 73.6373C120.391 72.3216 118.326 71.9955 116.593 73.3023C115.986 73.6416 116.404 74.776 117.199 74.538Z" fill="#60C697"/>
</g>
<g id="Group_15">
<path id="Vector_18" d="M126.364 124.028C126.477 122.778 125.982 121.504 125.558 120.365C125.066 119.26 124.371 118.091 123.514 117.262C121.386 115.14 118.682 114.848 115.921 115.098C114.541 115.223 113.16 115.348 111.922 115.908C110.55 116.539 109.696 117.836 109.147 119.228C108.142 121.539 106.873 126.115 109.631 127.654C110.108 127.915 110.814 127.802 111.006 127.192C111.163 126.514 111.224 126.142 111.212 125.468C111.203 124.962 111.226 124.354 111.284 123.813C111.366 122.665 111.685 121.647 112.071 120.595C112.394 119.746 112.821 119.098 113.658 118.746C114.663 118.392 115.809 118.305 116.852 118.186C118.805 118.017 120.462 118.259 121.904 119.719C123.244 121.146 123.82 123.228 125.224 124.452C125.602 124.851 126.274 124.671 126.364 124.028Z" fill="#60C697"/>
</g>
<path id="Vector_19" d="M122.831 111.198C122.925 110.461 123.005 109.414 122.572 108.756C122.745 108.547 122.846 108.359 122.76 108.07C122.276 106.719 120.904 106.342 119.698 105.995C118.42 105.669 117.135 105.582 115.82 105.661C114.578 105.718 113.047 105.862 111.978 106.497C110.497 107.334 111.183 109.098 111.501 110.42C111.674 110.998 112.302 111.518 112.923 111.49C114.31 111.389 115.812 111.412 117.169 111.477C118.527 111.543 120.051 111.638 121.372 112.108C121.914 112.339 122.716 111.863 122.831 111.198Z" fill="#E7EFF2"/>
<g id="Group_16">
<path id="Vector_20" d="M112.916 76.53C112.49 77.2089 112.554 78.2132 112.482 79.0223C112.453 79.9759 112.402 80.8573 112.445 81.7893C112.438 83.6027 112.473 85.5606 112.776 87.3596C113.021 88.7035 114.943 88.2854 114.957 87.0211C114.965 85.2077 114.662 83.4087 114.525 81.6386C114.431 80.8005 114.388 79.8685 114.295 79.0304C114.223 78.2646 114.179 77.3326 113.797 76.581C113.595 76.1691 113.118 76.1544 112.916 76.53Z" fill="#E7EFF2"/>
</g>
<g id="Group_17">
<path id="Vector_21" d="M116.325 76.6111C115.465 78.9948 115.659 82.0075 116.085 84.4785C116.207 85.1505 116.597 85.6636 117.29 85.6134C117.839 85.6064 118.453 85.0287 118.425 84.4074C118.273 83.1141 118.1 81.7486 118.021 80.4337C117.942 79.1188 117.863 77.8039 117.567 76.5539C117.372 75.9036 116.556 76.0693 116.325 76.6111Z" fill="#E7EFF2"/>
</g>
<g id="Group_18">
<path id="Vector_22" d="M119.545 76.591C119.14 78.1296 119.371 79.9503 119.37 81.5253C119.37 82.3128 119.464 83.1508 119.485 84.0106C119.507 84.8703 119.507 85.6578 119.911 86.4816C120.229 87.0164 121.11 87.0674 121.391 86.4317C121.702 85.63 121.652 84.9364 121.652 84.1489C121.63 83.2891 121.609 82.4294 121.494 81.5191C121.328 79.9151 121.408 78.0801 120.809 76.606C120.52 75.9051 119.733 75.9047 119.545 76.591Z" fill="#E7EFF2"/>
</g>
<g id="Group_19">
<path id="Vector_23" d="M120.387 122.482C120.321 124.628 120.538 126.925 120.638 129.1C120.717 131.202 120.868 133.283 120.947 135.385C121.127 139.662 121.4 143.99 121.58 148.267C121.99 156.727 122.017 165.224 122.26 173.655C122.375 178.503 122.468 183.278 122.488 188.075C122.503 189.173 124.149 189.152 124.135 188.054C124.014 179.508 123.799 170.91 123.418 162.284C123.239 158.007 122.965 153.679 122.786 149.402C122.606 145.125 122.427 140.848 122.153 136.52C121.988 134.129 121.822 131.737 121.656 129.346C121.513 127.027 121.419 124.614 121.059 122.36C121.001 121.904 120.351 122.099 120.387 122.482Z" fill="#D8E5E5"/>
</g>
<g id="Group_20">
<path id="Vector_24" d="M117.615 119.533C118.225 137.067 118.835 154.602 119.279 172.107C119.415 177.027 119.551 181.947 119.687 186.867C119.701 187.965 121.326 187.872 121.334 186.846C120.796 169.29 120.042 151.799 119.193 134.258C118.963 129.287 118.683 124.41 118.381 119.461C118.251 119.028 117.557 119.078 117.615 119.533Z" fill="#D8E5E5"/>
</g>
<g id="Group_21">
<path id="Vector_25" d="M114.732 120.948C114.24 122.985 114.529 125.261 114.586 127.291C114.665 129.393 114.744 131.496 114.823 133.598C114.952 137.969 115.153 142.318 115.282 146.689C115.569 155.265 115.806 163.934 116.093 172.51C116.229 177.43 116.343 182.278 116.479 187.198C116.515 188.368 118.234 188.326 118.198 187.155C117.747 169.888 117.057 152.614 116.202 135.311C116.109 132.898 115.943 130.506 115.85 128.093C115.792 126.851 115.756 125.68 115.627 124.459C115.497 123.238 115.461 122.068 115.115 120.912C115.071 120.767 114.833 120.76 114.732 120.948Z" fill="#D8E5E5"/>
</g>
<g id="Group_22">
<path id="Vector_26" d="M112.645 124.487C112.566 125.534 112.443 126.437 112.435 127.463C112.428 128.489 112.348 129.537 112.362 130.635C112.347 132.687 112.332 134.738 112.318 136.79C112.338 140.8 112.337 144.737 112.503 148.704C112.71 156.752 113.084 164.829 113.53 172.885C113.724 177.472 114.012 182.111 114.35 186.655C114.372 187.515 115.708 187.508 115.592 186.598C114.462 170.479 114.047 154.383 113.538 138.236C113.466 135.895 113.416 133.626 113.272 131.307C113.236 130.137 113.2 128.966 113.186 127.868C113.15 126.698 113.042 125.549 112.934 124.4C112.913 124.328 112.674 124.321 112.645 124.487Z" fill="#D8E5E5"/>
</g>
</g>
<path id="Rope_2" d="M106.46 98.7064C106.46 98.7064 110.564 95.5711 115.791 95.1277M126.002 98.7064C122.635 95.5984 119.001 94.8554 115.791 95.1277M115.791 0.680725V95.1277" stroke="#0D0842"/>
</g>
<g id="Books_6">
<g id="Books_7">
<g id="Group_23">
<path id="Vector_27" d="M170.112 212.609L163.934 141.523C163.598 138.036 163.489 131.206 166.791 130.882L177.624 129.939C180.926 129.615 184.251 136.22 184.588 139.708L190.208 210.74C190.208 210.74 186.227 207.97 179.885 208.414C173.268 208.877 170.112 212.609 170.112 212.609Z" fill="#E7EFF2"/>
</g>
<path id="Vector_28" d="M180.811 88.4123C178.32 85.8146 173.301 84.0408 169.264 84.4159C165.961 84.7395 158.492 88.8661 157.844 92.7923C157.607 93.3634 157.474 94.1118 157.421 94.67C157.248 96.1605 157.259 97.6381 157.185 99.2142C157.218 103.647 157.435 108.067 157.744 112.481C158.309 121.866 159.241 131.226 159.806 140.611C160.398 149.071 161.181 157.609 162.049 166.049C162.904 174.306 163.667 182.568 164.431 190.831C164.831 195.238 165.41 199.54 166.086 203.928C166.262 205.117 166.431 206.214 166.699 207.397C166.705 207.489 166.718 207.672 166.724 207.764C166.879 209.971 167.125 212.172 167.917 214.241C168.257 215.142 169.097 215.268 169.971 214.56C170.319 214.258 170.394 212.682 170.368 212.314L164.246 143.35C164.182 142.43 164.111 141.419 164.047 140.499C164.11 137.445 167.042 134.468 172.079 132.545C177.747 130.392 182.322 135.061 183.396 137.204C183.715 139.122 184.04 141.132 184.359 143.05L185.575 156.456C185.588 156.64 185.594 156.731 185.607 156.915C185.852 160.409 186.103 163.996 186.439 167.483C187.021 174.465 187.694 181.44 188.275 188.422C188.644 192.37 188.927 196.415 189.204 200.369C189.493 204.507 189.593 208.566 190.066 212.691C190.274 214.339 192.565 214.087 192.64 212.511C192.664 208.905 192.407 205.227 192.149 201.549C191.898 197.963 191.647 194.377 191.304 190.797C190.717 183.724 190.044 176.748 189.456 169.675C188.875 162.693 188.477 155.698 187.988 148.71C187.892 147.331 187.71 146.05 187.521 144.677C187.884 143.265 187.67 141.525 187.567 140.054C187.353 138.313 187.047 136.579 186.918 134.74C186.523 130.425 186.595 126.169 186.292 121.847C185.687 113.204 184.616 104.501 183.643 95.8833C183.403 93.7749 183.071 91.6729 181.932 89.9047C181.624 89.4642 181.316 89.0238 181.014 88.6753C180.916 88.5898 180.91 88.4978 180.811 88.4123Z" fill="#8170F2"/>
<g id="Group_24">
<path id="Vector_29" d="M166.753 139.57C167.082 148.233 168.514 156.819 169.297 165.357C169.73 170.224 169.973 175.012 170.222 179.892C170.465 184.68 170.8 189.461 171.042 194.249C171.337 199.772 171.723 205.289 172.017 210.813C172.069 211.548 173.264 211.465 173.212 210.729C172.628 201.068 172.044 191.407 171.552 181.739C170.994 172.446 170.521 163.054 169.227 153.812C168.525 149.056 167.731 144.307 167.218 139.63C167.193 139.262 166.733 139.295 166.753 139.57Z" fill="#D8E5E5"/>
</g>
<g id="Group_25">
<path id="Vector_30" d="M170.027 134.906C169.834 137.414 170.185 139.792 170.451 142.268C170.71 144.653 170.969 147.037 171.143 149.52C171.668 154.38 172.101 159.247 172.442 164.12C173.296 173.67 173.972 183.325 174.733 192.882C175.126 198.491 175.42 204.014 175.997 209.61C176.042 210.254 177.053 210.183 177.008 209.539C176.503 199.688 175.63 189.862 174.849 180.03C174.088 170.473 173.32 160.825 172.375 151.281C172.09 148.529 171.896 145.771 171.611 143.019C171.333 140.359 171.14 137.6 170.402 134.972C170.382 134.696 170.107 134.716 170.027 134.906Z" fill="#D8E5E5"/>
</g>
<g id="Group_26">
<path id="Vector_31" d="M173.77 134.274C174.367 144.119 175.515 153.926 176.296 163.758C177.07 173.498 177.654 183.16 178.153 192.919C178.454 198.535 178.663 204.157 178.963 209.772C179.015 210.508 180.21 210.424 180.158 209.688C179.246 190.071 178.335 170.453 176.32 150.913C175.744 145.316 175.075 139.727 174.229 134.242C174.118 133.973 173.751 133.998 173.77 134.274Z" fill="#D8E5E5"/>
</g>
<g id="Group_27">
<path id="Vector_32" d="M177.033 134.693C177.115 137.182 177.656 139.639 177.922 142.115C178.187 144.591 178.545 147.061 178.811 149.537C179.329 154.306 179.848 159.074 180.183 163.856C180.944 173.412 181.436 183.08 182.014 192.649C182.302 198.081 182.688 203.598 183.068 209.023C183.126 209.85 184.413 209.76 184.355 208.933C182.904 189.537 182.472 170.164 180.286 150.82C180.001 148.068 179.624 145.322 179.247 142.577C178.877 139.923 178.493 137.085 177.761 134.549C177.545 134.102 177 134.233 177.033 134.693Z" fill="#D8E5E5"/>
</g>
<g id="Group_28">
<path id="Vector_33" d="M181.303 136.334C181.195 138.744 181.461 141.22 181.634 143.703C181.802 146.094 181.976 148.576 182.235 150.961C182.662 155.736 183.095 160.603 183.43 165.384C184.185 174.849 184.946 184.405 185.609 193.876C185.796 196.542 185.982 199.209 186.077 201.882C186.174 203.261 186.172 204.555 186.269 205.934C186.365 207.314 186.37 208.699 186.65 210.066C186.768 210.427 187.319 210.388 187.385 210.014C187.684 207.683 187.326 205.213 187.257 202.908C187.09 200.518 187.008 198.028 186.841 195.638C186.506 190.856 186.165 185.983 185.83 181.201C185.062 171.553 184.301 161.997 183.441 152.355C183.254 149.688 182.976 147.028 182.697 144.368C182.418 141.708 182.317 138.943 181.756 136.21C181.737 135.934 181.376 136.052 181.303 136.334Z" fill="#D8E5E5"/>
</g>
</g>
<path id="Rope_3" d="M157.868 114.704C157.868 114.704 163.505 108.777 171.483 108.511M185.778 114.704C180.68 109.843 175.747 108.368 171.483 108.511M171.483 108.511V0" stroke="#0D0842"/>
</g>
</g>
</svg>
